<svg id="visual" viewBox="0 0 900 900" width="900" height="900" xmlns="http://www.w3.org/2000/svg" xmlns:xlink="http://www.w3.org/1999/xlink" version="1.1"><g transform="translate(531.930194453145 420.1904730687577)"><path d="M79.1 -145.2C88.3 -86.5 71.9 -48.1 91.9 -5.7C112 36.8 168.6 83.4 181.5 146C194.5 208.5 163.8 287 101.9 332.1C40.1 377.1 -52.8 388.7 -88.1 335.4C-123.4 282 -101.1 163.8 -150.7 84C-200.3 4.3 -321.7 -36.9 -344.3 -87C-366.8 -137.1 -290.4 -196.1 -216.6 -243.4C-142.7 -290.7 -71.3 -326.4 -18.2 -304.7C34.9 -283 69.8 -203.9 79.1 -145.2" fill="#ff004f"></path></g></svg>